<?xml version="1.0" encoding="utf-8"?>
<svg version="1.1" xmlns="http://www.w3.org/2000/svg" xmlns:xlink="http://www.w3.org/1999/xlink" x="0px" y="0px"
	 viewBox="0 0 48 48" style="enable-background:new 0 0 48 48;" xml:space="preserve">
<g id="_x32_5_Costumer_Service_x2C__Headset_x2C__support">
	<path d="M46,26v6c0,3.3-2.7,6-6,6l0,0c0,3.3-2.7,6-6,6s-6-2.7-6-6v-4c0-3.3,2.7-6,6-6s6,2.7,6,6l0,0c1.1,0,2-0.9,2-2v-6
		c0-9.9-8.1-18-18-18S6,16.1,6,26v6c0,1.1,0.9,2,2,2l0,0c0-3.3,2.7-6,6-6s6,2.7,6,6v4c0,3.3-2.7,6-6,6s-6-2.7-6-6l0,0
		c-3.3,0-6-2.7-6-6v-6C2,13.9,11.9,4,24,4S46,13.9,46,26z M22,28h4V18h-4V28z M26,12h-4v4h4V12z"/>
</g>
<g id="_x32_4_Letter_x2C__Contract_x2C__Documentation">
</g>
<g id="_x32_3_Notification_x2C__Alarm_x2C__Bell">
</g>
<g id="_x32_2_Schedule__x2C_Calendar_x2C__Clock_x2C__dateline">
</g>
<g id="_x32_1_Exclamation_Mark_x2C__Attention_x2C__Search">
</g>
<g id="_x32_0_Microphone_x2C__Radio_x2C__Sound">
</g>
<g id="_x31_9_Location_x2C__Contact_x2C_mobile">
</g>
<g id="_x31_8_Mobile_x2C__Call_x2C__Cell_Phone_x2C__Time">
</g>
<g id="_x31_7_Computer_x2C__Message_x2C__online_chat">
</g>
<g id="_x31_6_Communication_x2C__Conversation_x2C__Mobile_x2C__Phone">
</g>
<g id="_x31_5_DeviceI_x2C_Phone_x2C__Smartphone">
</g>
<g id="_x31_4_Comunication_x2C__Chat_x2C__contact_us">
</g>
<g id="_x31_3_Contact_Form_x2C__Form_x2C__website">
</g>
<g id="_x31_2_Mobile_Chat_x2C__Chat_x2C__Communication">
</g>
<g id="_x31_1_File_x2C__Contact_Us_x2C__File_Send_x2C__folder">
</g>
<g id="_x31_0_Web_Page_x2C__Chat_x2C__Messages">
</g>
<g id="_x30_9_Template_x2C__Edit_Tools_x2C__Layout">
</g>
<g id="_x30_8_Internet_x2C___Network_x2C__connection">
</g>
<g id="_x30_7_telephone_x2C__phone_x2C__contact">
</g>
<g id="_x30_6_Fast_Mail_x2C__Mail_x2C__Send_mail">
</g>
<g id="_x30_5_share_x2C__link_x2C__send">
</g>
<g id="_x30_4_Web_Information_x2C__Contact_x2C__Info_x2C_">
</g>
<g id="_x30_3_open_Mail__x2C__Email_x2C__Envelope">
</g>
<g id="_x30_2_Mail__x2C__Email_x2C__Envelope_x2C_">
</g>
<g id="_x30_1_Phone_x2C__Call_x2C__Contact_x2C_">
</g>
</svg>
