<?xml version="1.0" encoding="UTF-8"?>
<svg id="OBJECT" xmlns="http://www.w3.org/2000/svg" viewBox="0 0 32 32">
  <defs>
    <style>
      .cls-1 {
        fill: #210000;
        stroke-width: 0px;
      }
    </style>
  </defs>
  <path class="cls-1" d="m5.5,12h17v1c0,.55.45,1,1,1s1-.45,1-1v-1h2c.55,0,1-.45,1-1s-.45-1-1-1H5.5c-.55,0-1,.45-1,1s.45,1,1,1Z"/>
  <path class="cls-1" d="m31,7c0-.55-.45-1-1-1h-5.5v-2.5c0-1.38-1.12-2.5-2.5-2.5h-12c-1.38,0-2.5,1.12-2.5,2.5v2.5H2c-.55,0-1,.45-1,1v11c0,1.01.39,1.91,1,2.62v7.88c0,1.38,1.12,2.5,2.5,2.5h23c1.38,0,2.5-1.12,2.5-2.5v-7.88c.61-.7,1-1.61,1-2.62V7ZM9.5,3.5c0-.28.22-.5.5-.5h12c.28,0,.5.22.5.5v2.5h-13v-2.5Zm-6.5,4.5h26v10c0,1.1-.9,2-2,2H5c-1.1,0-2-.9-2-2v-10Zm17.5,14h2v2.5c0,.28-.22.5-.5.5h-1c-.28,0-.5-.22-.5-.5v-2.5Zm-11,0h2v2.5c0,.28-.22.5-.5.5h-1c-.28,0-.5-.22-.5-.5v-2.5Zm18,7H4.5c-.28,0-.5-.22-.5-.5v-6.64c.32.08.65.14,1,.14h2.5v2.5c0,1.38,1.12,2.5,2.5,2.5h1c1.38,0,2.5-1.12,2.5-2.5v-2.5h5v2.5c0,1.38,1.12,2.5,2.5,2.5h1c1.38,0,2.5-1.12,2.5-2.5v-2.5h2.5c.35,0,.68-.06,1-.14v6.64c0,.28-.22.5-.5.5Z"/>
</svg>