<?xml version="1.0" encoding="utf-8"?>
<!-- Generator: Adobe Illustrator 27.5.0, SVG Export Plug-In . SVG Version: 6.00 Build 0)  -->
<svg version="1.1" xmlns="http://www.w3.org/2000/svg" xmlns:xlink="http://www.w3.org/1999/xlink" x="0px" y="0px"
	 viewBox="0 0 48 48" style="enable-background:new 0 0 48 48;" xml:space="preserve">
<g id="_x32_5_Costumer_Service_x2C__Headset_x2C__support">
</g>
<g id="_x32_4_Letter_x2C__Contract_x2C__Documentation">
</g>
<g id="_x32_3_Notification_x2C__Alarm_x2C__Bell">
</g>
<g id="_x32_2_Schedule__x2C_Calendar_x2C__Clock_x2C__dateline">
</g>
<g id="_x32_1_Exclamation_Mark_x2C__Attention_x2C__Search">
</g>
<g id="_x32_0_Microphone_x2C__Radio_x2C__Sound">
</g>
<g id="_x31_9_Location_x2C__Contact_x2C_mobile">
</g>
<g id="_x31_8_Mobile_x2C__Call_x2C__Cell_Phone_x2C__Time">
</g>
<g id="_x31_7_Computer_x2C__Message_x2C__online_chat">
</g>
<g id="_x31_6_Communication_x2C__Conversation_x2C__Mobile_x2C__Phone">
</g>
<g id="_x31_5_DeviceI_x2C_Phone_x2C__Smartphone">
</g>
<g id="_x31_4_Comunication_x2C__Chat_x2C__contact_us">
</g>
<g id="_x31_3_Contact_Form_x2C__Form_x2C__website">
</g>
<g id="_x31_2_Mobile_Chat_x2C__Chat_x2C__Communication">
</g>
<g id="_x31_1_File_x2C__Contact_Us_x2C__File_Send_x2C__folder">
</g>
<g id="_x31_0_Web_Page_x2C__Chat_x2C__Messages">
</g>
<g id="_x30_9_Template_x2C__Edit_Tools_x2C__Layout">
</g>
<g id="_x30_8_Internet_x2C___Network_x2C__connection">
</g>
<g id="_x30_7_telephone_x2C__phone_x2C__contact">
</g>
<g id="_x30_6_Fast_Mail_x2C__Mail_x2C__Send_mail">
</g>
<g id="_x30_5_share_x2C__link_x2C__send">
</g>
<g id="_x30_4_Web_Information_x2C__Contact_x2C__Info_x2C_">
</g>
<g id="_x30_3_open_Mail__x2C__Email_x2C__Envelope">
	<path d="M45.4,16.6L45.4,16.6L38,9.2V6c0-1.1-0.9-2-2-2H12c-1.1,0-2,0.9-2,2v3.2l-7.4,7.4l0,0C2.2,17,2,17.5,2,18v20
		c0,3.3,2.7,6,6,6h32c3.3,0,6-2.7,6-6V18C46,17.5,45.8,17,45.4,16.6z M34,8v14.6l-10,7l-10-7V8H34z M7.1,17.7l2.9-2.9v4.9L7.1,17.7z
		 M38,19.8v-4.9l2.9,2.9L38,19.8z M30,16H18v-4h12V16z M20,20h8v4h-8V20z"/>
</g>
<g id="_x30_2_Mail__x2C__Email_x2C__Envelope_x2C_">
</g>
<g id="_x30_1_Phone_x2C__Call_x2C__Contact_x2C_">
</g>
</svg>
