<svg  xmlns="http://www.w3.org/2000/svg" viewBox="0 0 48 36"><defs><style>.cls-1{fill:#1e0f00;}</style></defs><title>Asset 181</title><g id="Layer_2" data-name="Layer 2"><g id="_1" data-name="1"><path class="cls-1" d="M45,36H3a3,3,0,0,1-3-3V31a3,3,0,0,1,3-3H45a3,3,0,0,1,3,3v2A3,3,0,0,1,45,36ZM3,30a1,1,0,0,0-1,1v2a1,1,0,0,0,1,1H45a1,1,0,0,0,1-1V31a1,1,0,0,0-1-1Z"/><path class="cls-1" d="M28,30H20a1,1,0,0,1-1-.89l-3-28A1,1,0,0,1,17,0H31a1,1,0,0,1,1,1.11l-3,28A1,1,0,0,1,28,30Zm-7.1-2h6.2L29.89,2H18.11Z"/><path class="cls-1" d="M12,9l-1.21-1.6A21.94,21.94,0,0,1,17.12,4.1L17.75,6A19.69,19.69,0,0,0,12,9Z"/><path class="cls-1" d="M45,30H3a1,1,0,0,1-1-1V25A22,22,0,0,1,5.18,13.6l1.71,1A20,20,0,0,0,4,25v3H44V25a20,20,0,0,0-2.89-10.37l1.71-1A22,22,0,0,1,46,25v4A1,1,0,0,1,45,30Z"/><path class="cls-1" d="M36,9a19.81,19.81,0,0,0-5.76-3l.63-1.9a21.94,21.94,0,0,1,6.34,3.31Z"/><path class="cls-1" d="M38.92,23.38l-1.84-.76L41.79,11.3,37.61,7.81,35,19.22,33,18.78l3-13a1,1,0,0,1,.65-.73,1,1,0,0,1,1,.18l6,5a1,1,0,0,1,.28,1.15Z"/><path class="cls-1" d="M9.08,23.38l-5-12a1,1,0,0,1,.28-1.15l6-5a1,1,0,0,1,1-.18,1,1,0,0,1,.65.73l3,13L13,19.22,10.39,7.81,6.21,11.3l4.71,11.32Z"/></g></g></svg>