<?xml version="1.0" encoding="UTF-8"?>
<svg id="Layer_3" data-name="Layer 3" xmlns="http://www.w3.org/2000/svg" viewBox="0 0 500 500">
  <path stroke="#210000" stroke-width="15" fill="transparent" d="M11.12,230.1c1.73,4.93,5.29,8.89,10,11.16l48.92,23.45c2.68,1.29,5.55,1.95,8.45,1.95,2.19,0,4.38-.37,6.5-1.12,2.38-.84,4.51-2.14,6.36-3.75l19.13,18.08c-10.07,10.72-9.93,27.59.53,38.05,4.94,4.94,11.31,7.48,17.79,7.84-.8,2.44-1.32,4.99-1.32,7.64,0,6.61,2.57,12.81,7.24,17.47l3.73,3.74h0c4.66,4.66,10.87,7.24,17.48,7.24,1.9,0,3.75-.27,5.55-.69.1,6.45,2.63,12.5,7.2,17.07l3.73,3.74h0c4.66,4.66,10.87,7.24,17.48,7.24,4.65,0,9.07-1.34,12.93-3.72.83,4.88,3.07,9.56,6.83,13.32,4.66,4.68,10.87,7.24,17.47,7.24s12.81-2.58,17.48-7.24l6.17-6.17c3.86,2.43,14.29,8.29,25.56,8.29,5.23,0,10.61-1.28,15.55-4.77,8.31-5.87,13.78-15.15,16.32-20.18,10.95-1.32,26.57-8.26,28.89-27.78,11.48-2.77,27.1-11.72,29.18-32.06,5.77-1.86,15.49-6.23,22.01-15.62,5.49-7.9,7.36-17.65,5.96-28.86l13.9-10.38c1.96,1.85,4.24,3.34,6.86,4.26,2.12.75,4.32,1.12,6.5,1.12,2.89,0,5.77-.64,8.45-1.93l48.92-23.46c4.72-2.26,8.27-6.22,10-11.16,1.73-4.92,1.45-10.24-.81-14.94l-52.79-110.08c-4.66-9.73-16.35-13.84-26.1-9.2l-48.92,23.47c-4.72,2.26-8.27,6.22-10,11.16-.73,2.07-1.02,4.21-1.04,6.35h-97.34c-8.28,0-16.28,3.47-21.93,9.53l-2.63,2.82-76.49-11.32c.11-2.47-.24-4.97-1.08-7.37-1.73-4.93-5.29-8.89-10-11.16l-48.93-23.47c-9.73-4.65-21.44-.54-26.1,9.2L11.93,215.15c-2.26,4.71-2.55,10.03-.81,14.95ZM119.49,309.42c-5.98-5.99-5.98-15.74,0-21.73l11.57-11.57c5.99-5.98,15.73-5.98,21.71,0,2.9,2.91,4.5,6.76,4.5,10.86s-1.6,7.96-4.5,10.86l-.92.92-10.65,10.65c-5.99,5.98-15.73,5.98-21.71,0h0ZM146.94,346.11l-3.73-3.74c-2.4-2.4-3.73-5.59-3.73-8.99s1.32-6.59,3.73-8.99l12.85-12.86,5.2-5.2s0,0,.01-.01l7.64-7.64c4.96-4.93,13.03-4.95,17.98,0l3.74,3.74c4.96,4.96,4.96,13.03,0,17.99l-25.7,25.7c-4.81,4.8-13.18,4.8-17.98,0ZM180.91,373.47l-3.74-3.74c-2.4-2.4-3.72-5.59-3.72-8.99s1.32-6.59,3.73-8.99l16.24-16.24c4.96-4.97,13.03-4.95,17.99,0l3.73,3.73c4.95,4.96,4.95,13.03,0,17.99l-16.24,16.24c-4.81,4.8-13.19,4.8-17.98,0ZM236.13,390.31c-4.8,4.79-13.17,4.82-17.98,0-4.96-4.96-4.96-13.03,0-17.99l8.54-8.55c2.48-2.47,5.74-3.71,9-3.71s6.52,1.24,8.99,3.71c4.96,4.96,4.96,13.03,0,17.99l-8.55,8.55ZM361.57,134.49c.67-1.91,2.04-3.45,3.87-4.31l48.92-23.47c1.05-.5,2.16-.74,3.26-.74,2.82,0,5.54,1.58,6.84,4.29l52.79,110.09c.87,1.82.98,3.87.31,5.77-.67,1.91-2.04,3.45-3.86,4.31h0l-48.92,23.47c-1.83.87-3.88.98-5.78.3-1.9-.67-3.44-2.04-4.31-3.86l-52.79-110.09c-.87-1.82-.98-3.87-.31-5.77ZM251.87,148.85h100.83l49.02,102.23-15.01,11.22c-7.97-2.43-33.2-11.17-65.55-32.73-5.26-3.51-14-11.94-22.27-20.44,6.12,1.59,12.82,2.77,19.83,2.77.74,0,1.48-.01,2.23-.04,3.31-.12,5.9-2.89,5.78-6.21-.11-3.3-2.59-5.8-6.2-5.79-20.76.87-41.1-11.38-41.31-11.5-.1-.06-.21-.06-.31-.11-.34-.18-.7-.27-1.06-.38-.41-.13-.81-.26-1.23-.29-.11,0-.21-.07-.32-.08-.21,0-.42.1-.64.12-.52.04-1.01.12-1.5.29-.22.07-.4.19-.61.28-.47.23-.9.48-1.3.83-.11.09-.26.13-.37.23l-24.86,24.85c-10.7,10.71-29.39,10.71-40.11,0-6.9-6.89-7.08-17.88-.43-25.02l26.43-28.3c1.08-.61,1.94-1.5,2.48-2.65l3.34-3.58c3.39-3.62,8.19-5.71,13.16-5.71ZM197.69,180.92c-11.09,11.88-10.78,30.2.72,41.68,15.25,15.26,41.83,15.26,57.07,0l20.4-20.39c8.64,9.48,28.19,30.4,38.61,37.35,33.18,22.12,58.6,31.12,67.94,33.98.92,7.97-.31,14.75-3.95,20.04-5.56,8.08-14.97,10.97-17.96,11.71-5.87-1.43-34.03-9.22-56.81-32-2.34-2.34-6.14-2.34-8.48,0-2.34,2.34-2.34,6.14,0,8.48,21.94,21.94,47.76,31.09,58.73,34.2-2.55,17.08-18.38,20.48-22.31,21.02-5.23-1.25-33.92-8.92-57.07-32.06-2.34-2.34-6.14-2.34-8.48,0s-2.34,6.14,0,8.48c21.94,21.94,47.76,31.09,58.73,34.2-2.56,14.97-16.92,16.46-20.03,16.57-4.5-1.05-33.8-8.59-57.35-32.13-2.34-2.34-6.14-2.34-8.48,0s-2.34,6.14,0,8.48c20.59,20.58,44.59,29.91,56.55,33.55-2.35,3.97-5.92,8.97-10.56,12.26-8.89,6.29-22.01-.44-26.87-3.34,4.16-9.12,2.57-20.24-4.93-27.73-6.07-6.07-14.51-8.3-22.35-6.73.08-6.44-2.3-12.9-7.19-17.79l-3.73-3.73c-4.12-4.12-9.59-6.32-15.21-6.81,3.36-8.83,1.53-19.19-5.56-26.29l-3.74-3.74c-7.11-7.11-17.5-8.93-26.33-5.55-.53-6.2-3.04-12.27-7.78-17.01-10.66-10.66-28.02-10.66-38.68,0l-3.67,3.67-20.87-19.73,48.99-102.15,70.35,10.41-19.68,21.07ZM22.75,220.34l52.79-110.08c1.3-2.71,4.02-4.3,6.84-4.3,1.09,0,2.2.25,3.25.75l48.93,23.47c1.82.87,3.19,2.4,3.86,4.31.67,1.9.56,3.95-.31,5.78l-52.79,110.07c-.87,1.83-2.41,3.2-4.31,3.87-1.92.68-3.95.57-5.78-.32l-48.92-23.46h0c-1.82-.87-3.19-2.4-3.86-4.31-.67-1.9-.56-3.95.31-5.78Z" fill="#190000"/>
</svg>