<svg xmlns="http://www.w3.org/2000/svg" viewBox="0 0 48 48"><defs><style>.cls-1{fill:#1e0f00;}</style></defs><title>Asset 531</title><g id="Layer_2" data-name="Layer 2"><g id="_1" data-name="1"><rect class="cls-1" y="46" width="48" height="2"/><path class="cls-1" d="M35,34a7,7,0,1,1,7-7A7,7,0,0,1,35,34Zm0-12a5,5,0,1,0,5,5A5,5,0,0,0,35,22Z"/><path class="cls-1" d="M35,48a1,1,0,0,1-.62-.21C33.88,47.39,22,38,22,27a13,13,0,0,1,26,0c0,11-11.88,20.39-12.38,20.79A1,1,0,0,1,35,48Zm0-32A11,11,0,0,0,24,27c0,8.64,8.6,16.63,11,18.7,2.4-2.06,11-10,11-18.7A11,11,0,0,0,35,16Z"/><path class="cls-1" d="M19,47H17V1a1,1,0,0,1,1-1H38a1,1,0,0,1,1,1V13H37V2H19Z"/><path class="cls-1" d="M5,47H3V12a1,1,0,0,1,1-1H16v2H5Z"/><rect class="cls-1" x="7" y="41" width="8" height="2"/><rect class="cls-1" x="7" y="36" width="8" height="2"/><rect class="cls-1" x="7" y="31" width="8" height="2"/><rect class="cls-1" x="7" y="26" width="8" height="2"/><rect class="cls-1" x="7" y="21" width="8" height="2"/><rect class="cls-1" x="7" y="16" width="8" height="2"/><rect class="cls-1" x="25" y="4" width="2" height="2"/><rect class="cls-1" x="21" y="4" width="2" height="2"/><rect class="cls-1" x="29" y="4" width="2" height="2"/><rect class="cls-1" x="33" y="4" width="2" height="2"/><rect class="cls-1" x="25" y="8" width="2" height="2"/><rect class="cls-1" x="21" y="8" width="2" height="2"/><rect class="cls-1" x="29" y="8" width="2" height="2"/><rect class="cls-1" x="33" y="8" width="2" height="2"/><rect class="cls-1" x="25" y="12" width="2" height="2"/><rect class="cls-1" x="21" y="12" width="2" height="2"/><rect class="cls-1" x="21" y="16" width="2" height="2"/><rect class="cls-1" x="21" y="37" width="2" height="2"/><rect class="cls-1" x="21" y="41" width="2" height="2"/><rect class="cls-1" x="25" y="41" width="2" height="2"/></g></g></svg>