<?xml version="1.0" encoding="UTF-8"?><svg xmlns="http://www.w3.org/2000/svg" viewBox="0 0 24 24"><defs><style>.v{fill:#231f20;}</style></defs><g id="a"/><g id="b"/><g id="c"/><g id="d"/><g id="e"/><g id="f"/><g id="g"/><g id="h"/><g id="i"/><g id="j"/><g id="k"/><g id="l"/><g id="m"><g><path class="v" d="M16,2.25H8c-3.17,0-5.75,2.58-5.75,5.75v8c0,3.17,2.58,5.75,5.75,5.75h8c3.17,0,5.75-2.58,5.75-5.75V8c0-3.17-2.58-5.75-5.75-5.75Zm4.25,13.75c0,2.34-1.91,4.25-4.25,4.25H8c-2.34,0-4.25-1.91-4.25-4.25V8c0-2.34,1.91-4.25,4.25-4.25h8c2.34,0,4.25,1.91,4.25,4.25v8Z"/><path class="v" d="M12,12.75c2.07,0,3.75-1.68,3.75-3.75s-1.68-3.75-3.75-3.75-3.75,1.68-3.75,3.75,1.68,3.75,3.75,3.75Zm0-6c1.24,0,2.25,1.01,2.25,2.25s-1.01,2.25-2.25,2.25-2.25-1.01-2.25-2.25,1.01-2.25,2.25-2.25Z"/><path class="v" d="M14,14.25h-4c-2.07,0-3.75,1.68-3.75,3.75,0,.41,.34,.75,.75,.75s.75-.34,.75-.75c0-1.24,1.01-2.25,2.25-2.25h4c1.24,0,2.25,1.01,2.25,2.25,0,.41,.34,.75,.75,.75s.75-.34,.75-.75c0-2.07-1.68-3.75-3.75-3.75Z"/></g></g><g id="n"/><g id="o"/><g id="p"/><g id="q"/><g id="r"/><g id="s"/><g id="t"/><g id="u"/></svg>